<svg width="112" height="38" viewBox="0 0 112 38" fill="none" xmlns="http://www.w3.org/2000/svg">
<path d="M33.3 0H3.7C1.665 0 0 1.665 0 3.7V33.3C0 35.335 1.665 37 3.7 37H33.3C35.335 37 37 35.335 37 33.3V3.7C37 1.665 35.335 0 33.3 0ZM11.1 33.3H3.7V25.9H11.1V33.3ZM11.1 22.2H3.7V14.8H11.1V22.2ZM11.1 11.1H3.7V3.7H11.1V11.1ZM22.2 33.3H14.8V25.9H22.2V33.3ZM22.2 22.2H14.8V14.8H22.2V22.2ZM22.2 11.1H14.8V3.7H22.2V11.1ZM33.3 33.3H25.9V25.9H33.3V33.3ZM33.3 22.2H25.9V14.8H33.3V22.2ZM33.3 11.1H25.9V3.7H33.3V11.1Z" fill="#FFE500"/>
<path d="M13.788 27.7097V24.6047H21.7C21.7 26.184 21.5083 27.5257 21.125 28.6297C20.757 29.7184 20.1283 30.6767 19.239 31.5047C17.859 32.7927 16.0573 33.4367 13.834 33.4367C11.396 33.4367 9.43333 32.6777 7.94599 31.1597C6.47399 29.6877 5.73799 27.84 5.73799 25.6167C5.73799 23.286 6.50466 21.3694 8.03799 19.8667C9.54066 18.364 11.5263 17.6127 13.995 17.6127C15.6203 17.6127 17.0003 17.9577 18.135 18.6477C19.331 19.3837 20.2433 20.434 20.872 21.7987L17.077 23.3627C16.8317 22.7494 16.4637 22.2357 15.973 21.8217C15.3597 21.3157 14.6467 21.0627 13.834 21.0627C12.7913 21.0627 11.9173 21.4154 11.212 22.1207C10.3227 23.01 9.87799 24.183 9.87799 25.6397C9.87799 26.989 10.2843 28.093 11.097 28.9517C11.833 29.7337 12.7683 30.1247 13.903 30.1247C14.8077 30.1247 15.5437 29.887 16.111 29.4117C16.617 28.9977 16.9313 28.4304 17.054 27.7097H13.788ZM23.8945 33.2987V23.0177H27.5745V24.6967C27.9119 24.0527 28.3949 23.5774 29.0235 23.2707C29.5295 22.9947 30.1659 22.8567 30.9325 22.8567C30.9632 22.8567 31.0015 22.8644 31.0475 22.8797C31.0935 22.8797 31.1702 22.8874 31.2775 22.9027C31.4002 22.9027 31.5305 22.9027 31.6685 22.9027V26.3757C31.1779 26.1304 30.6489 26.0077 30.0815 26.0077C29.3609 26.0077 28.8012 26.1917 28.4025 26.5597C27.8505 27.0657 27.5745 27.8477 27.5745 28.9057V33.2987H23.8945ZM33.3056 23.0177H36.9856V33.2987H33.3056V23.0177ZM33.6736 20.2117C33.275 19.7977 33.0756 19.307 33.0756 18.7397C33.0756 18.1724 33.275 17.6894 33.6736 17.2907C34.0876 16.8767 34.5783 16.6697 35.1456 16.6697C35.713 16.6697 36.196 16.8767 36.5946 17.2907C37.0086 17.6894 37.2156 18.1724 37.2156 18.7397C37.2156 19.307 37.0086 19.7977 36.5946 20.2117C36.196 20.6104 35.713 20.8097 35.1456 20.8097C34.5783 20.8097 34.0876 20.6104 33.6736 20.2117ZM51.1204 16.5317V33.2987H47.4404V32.1717C46.6737 33.153 45.6387 33.6437 44.3354 33.6437C42.9094 33.6437 41.7057 33.1684 40.7244 32.2177C39.6204 31.1444 39.0684 29.7797 39.0684 28.1237C39.0684 26.4677 39.6281 25.1107 40.7474 24.0527C41.7134 23.1327 42.9247 22.6727 44.3814 22.6727C45.5927 22.6727 46.6124 23.1174 47.4404 24.0067V16.5317H51.1204ZM45.1864 30.5157C45.7691 30.5157 46.2981 30.3087 46.7734 29.8947C47.2947 29.4194 47.5554 28.8367 47.5554 28.1467C47.5554 27.5334 47.3254 26.9814 46.8654 26.4907C46.4361 26.0307 45.8764 25.8007 45.1864 25.8007C44.5424 25.8007 43.9981 26.023 43.5534 26.4677C43.0781 26.943 42.8404 27.5257 42.8404 28.2157C42.8404 28.8137 43.0781 29.3504 43.5534 29.8257C44.0134 30.2857 44.5577 30.5157 45.1864 30.5157ZM56.5763 17.9577V24.0297H63.1543V17.9577H65.5003V33.2987H63.1543V26.2377H56.5763V33.2987H54.2303V17.9577H56.5763ZM69.7412 24.8117C70.7379 23.8457 71.9722 23.3627 73.4442 23.3627C74.9162 23.3627 76.1429 23.8457 77.1242 24.8117C78.1209 25.7624 78.6192 26.9814 78.6192 28.4687C78.6192 29.9407 78.1209 31.1674 77.1242 32.1487C76.1429 33.1147 74.9162 33.5977 73.4442 33.5977C71.9722 33.5977 70.7379 33.1147 69.7412 32.1487C68.7599 31.1674 68.2692 29.9407 68.2692 28.4687C68.2692 26.9814 68.7599 25.7624 69.7412 24.8117ZM71.3512 30.7457C71.8726 31.2977 72.5702 31.5737 73.4442 31.5737C74.3182 31.5737 75.0159 31.2977 75.5372 30.7457C76.0586 30.1784 76.3192 29.427 76.3192 28.4917C76.3192 27.4644 76.0356 26.69 75.4682 26.1687C74.9162 25.6474 74.2416 25.3867 73.4442 25.3867C72.6469 25.3867 71.9646 25.6474 71.3972 26.1687C70.8452 26.69 70.5692 27.4644 70.5692 28.4917C70.5692 29.427 70.8299 30.1784 71.3512 30.7457ZM80.9715 23.6157H83.2255V29.1587C83.2255 29.9714 83.3635 30.554 83.6395 30.9067C83.9769 31.3514 84.4675 31.5737 85.1115 31.5737C85.7555 31.5737 86.2462 31.3514 86.5835 30.9067C86.8595 30.554 86.9975 29.9714 86.9975 29.1587V23.6157H89.2515V29.2277C89.2515 30.6537 88.9065 31.7117 88.2165 32.4017C87.4192 33.199 86.3689 33.5977 85.0655 33.5977C83.8082 33.5977 82.7885 33.199 82.0065 32.4017C81.3165 31.7117 80.9715 30.6537 80.9715 29.2277V23.6157ZM98.0232 25.0647L96.3442 26.1687C96.0068 25.6167 95.5468 25.3407 94.9642 25.3407C94.6728 25.3407 94.4428 25.425 94.2742 25.5937C94.1362 25.7317 94.0672 25.9004 94.0672 26.0997C94.0672 26.3297 94.1745 26.5137 94.3892 26.6517C94.4352 26.6824 94.4812 26.713 94.5272 26.7437C94.5732 26.759 94.6575 26.7974 94.7802 26.8587C94.9028 26.92 95.0255 26.9814 95.1482 27.0427L96.2982 27.6177C96.9422 27.9397 97.3945 28.2387 97.6552 28.5147C98.1305 28.99 98.3682 29.588 98.3682 30.3087C98.3682 31.1674 98.0845 31.9034 97.5172 32.5167C96.8578 33.2374 95.9532 33.5977 94.8032 33.5977C93.9445 33.5977 93.2468 33.3907 92.7102 32.9767C92.1275 32.5474 91.7135 31.957 91.4682 31.2057L93.3082 30.3317C93.4615 30.7764 93.6378 31.083 93.8372 31.2517C94.0825 31.497 94.4122 31.6197 94.8262 31.6197C95.2248 31.6197 95.5315 31.5124 95.7462 31.2977C95.9608 31.083 96.0682 30.83 96.0682 30.5387C96.0682 30.2627 95.9685 30.0174 95.7692 29.8027C95.5545 29.588 95.2325 29.3887 94.8032 29.2047L93.9752 28.8137C93.3312 28.507 92.8865 28.231 92.6412 27.9857C92.1812 27.541 91.9512 26.9967 91.9512 26.3527C91.9512 25.54 92.2195 24.85 92.7562 24.2827C93.3388 23.6694 94.1285 23.3627 95.1252 23.3627C95.8152 23.3627 96.4132 23.5314 96.9192 23.8687C97.3792 24.16 97.7472 24.5587 98.0232 25.0647ZM107.185 30.0327L109.071 31.0907C108.642 31.8574 108.098 32.4477 107.438 32.8617C106.687 33.3524 105.736 33.5977 104.586 33.5977C103.237 33.5977 102.148 33.1837 101.32 32.3557C100.37 31.405 99.8942 30.1707 99.8942 28.6527C99.8942 27.058 100.408 25.7317 101.435 24.6737C102.309 23.7997 103.39 23.3627 104.678 23.3627C105.936 23.3627 106.971 23.7844 107.783 24.6277C108.688 25.563 109.14 26.9277 109.14 28.7217V28.9977H102.194C102.256 29.8104 102.532 30.462 103.022 30.9527C103.436 31.3667 104.011 31.5737 104.747 31.5737C105.345 31.5737 105.859 31.4127 106.288 31.0907C106.641 30.8147 106.94 30.462 107.185 30.0327ZM102.355 27.1577H106.84C106.748 26.621 106.518 26.184 106.15 25.8467C105.752 25.4787 105.246 25.2947 104.632 25.2947C103.988 25.2947 103.459 25.5017 103.045 25.9157C102.708 26.2224 102.478 26.6364 102.355 27.1577Z" fill="#333333"/>
</svg>
