<svg width="29" height="29" viewBox="0 0 29 29" fill="none" xmlns="http://www.w3.org/2000/svg">
<g clip-path="url(#clip0)">
<path d="M28.0921 13.5942H16.6133C16.113 13.5942 15.707 13.1882 15.707 12.688C15.707 12.1877 16.113 11.7817 16.6133 11.7817H28.0921C28.5924 11.7817 28.9984 12.1877 28.9984 12.688C28.9984 13.1882 28.5924 13.5942 28.0921 13.5942Z" fill="#333333"/>
<path d="M23.5603 18.1253C23.3282 18.1253 23.0963 18.0371 22.9198 17.8596C22.5658 17.5054 22.5658 16.9315 22.9198 16.5775L26.8106 12.6869L22.9198 8.79609C22.5658 8.4421 22.5658 7.86819 22.9198 7.5142C23.274 7.15998 23.8479 7.15998 24.2019 7.5142L28.733 12.0453C29.087 12.3993 29.087 12.9732 28.733 13.3272L24.2019 17.8583C24.0242 18.0371 23.7924 18.1253 23.5603 18.1253Z" fill="#333333"/>
<path d="M9.66644 29.001C9.4078 29.001 9.16244 28.9648 8.9173 28.8887L1.64562 26.466C0.656214 26.1204 0 25.1985 0 24.1679V2.41862C0 1.08584 1.08388 0.00195312 2.41666 0.00195312C2.67508 0.00195312 2.92044 0.0382374 3.1658 0.114346L10.4373 2.53698C11.4269 2.88257 12.0829 3.8045 12.0829 4.83506V26.5844C12.0829 27.9172 10.9992 29.001 9.66644 29.001ZM2.41666 1.8144C2.08435 1.8144 1.81244 2.08631 1.81244 2.41862V24.1679C1.81244 24.4252 1.98524 24.6644 2.2317 24.7503L9.46931 27.1621C9.5213 27.1789 9.589 27.1886 9.66644 27.1886C9.99875 27.1886 10.2704 26.9167 10.2704 26.5844V4.83506C10.2704 4.57775 10.0976 4.33859 9.85118 4.25274L2.61357 1.84095C2.56158 1.82413 2.49388 1.8144 2.41666 1.8144Z" fill="#333333"/>
<path d="M18.4258 9.66766C17.9255 9.66766 17.5195 9.26167 17.5195 8.76144V3.32411C17.5195 2.49156 16.8419 1.81366 16.0093 1.81366H2.41599C1.91575 1.81366 1.50977 1.40768 1.50977 0.907442C1.50977 0.407206 1.91575 0.0012207 2.41599 0.0012207H16.0093C17.8423 0.0012207 19.332 1.49109 19.332 3.32411V8.76144C19.332 9.26167 18.926 9.66766 18.4258 9.66766Z" fill="#333333"/>
<path d="M16.011 25.3752H11.1777C10.6775 25.3752 10.2715 24.9692 10.2715 24.4689C10.2715 23.9687 10.6775 23.5627 11.1777 23.5627H16.011C16.8436 23.5627 17.5213 22.8848 17.5213 22.0523V16.615C17.5213 16.1147 17.9272 15.7087 18.4275 15.7087C18.9277 15.7087 19.3337 16.1147 19.3337 16.615V22.0523C19.3337 23.8853 17.8441 25.3752 16.011 25.3752Z" fill="#333333"/>
</g>
<defs>
<clipPath id="clip0">
<rect width="29" height="29" fill="white"/>
</clipPath>
</defs>
</svg>
