<svg width="1546" height="874" viewBox="0 0 1546 874" fill="none" xmlns="http://www.w3.org/2000/svg">
<path d="M353.838 557.396V385.987H701.61C701.61 473.171 693.184 547.238 676.336 608.184C660.161 668.284 632.526 721.187 593.437 766.896C532.779 837.999 453.585 873.55 355.86 873.55C248.698 873.55 162.429 831.65 97.0526 747.85C32.3509 666.59 0 564.589 0 441.854C0 313.189 33.699 207.385 101.096 124.43C167.146 41.4751 254.425 0.000250933 362.937 0.000250933C434.377 0.000250933 495.035 19.0456 544.911 57.1365C597.481 97.7667 637.581 155.748 665.215 231.085L498.406 317.424C487.624 283.567 471.449 255.209 449.88 232.354C422.922 204.421 391.582 190.454 355.86 190.454C310.028 190.454 271.612 209.925 240.61 248.86C201.521 297.953 181.974 362.707 181.974 443.123C181.974 517.61 199.833 578.556 235.555 625.959C267.906 669.129 309.017 690.714 358.893 690.714C398.659 690.714 431.01 677.592 455.946 651.353C478.187 628.499 492.002 597.181 497.395 557.396H353.838Z" fill="#333333"/>
<path d="M1070.69 296.43V0.00264194L881.471 0L881.474 873.55H970.886H1070.69V502.931H1359.82V873.55H1458.83H1545.94V0.00264273H1359.82V296.43H1070.69Z" fill="#333333"/>
</svg>
